<svg xmlns="http://www.w3.org/2000/svg" version="1.1" xmlns:xlink="http://www.w3.org/1999/xlink" xmlns:svgjs="http://svgjs.dev/svgjs" width="1000" height="252" viewBox="0 0 1000 252"><g transform="matrix(1,0,0,1,-0.6060606060606233,0.3968779384250354)"><svg viewBox="0 0 396 100" data-background-color="#ffffff" preserveAspectRatio="xMidYMid meet" height="252" width="1000" xmlns="http://www.w3.org/2000/svg" xmlns:xlink="http://www.w3.org/1999/xlink"><g id="tight-bounds" transform="matrix(1,0,0,1,0.2400000000000091,-0.15749124540676007)"><svg viewBox="0 0 395.52 100.3149820259843" height="100.3149820259843" width="395.52"><g><svg viewBox="0 0 527.9141260247462 133.8938512930715" height="100.3149820259843" width="395.52"><g transform="matrix(1,0,0,1,132.39412602474624,41.375143505001844)"><svg viewBox="0 0 395.52 51.1435642830678" height="51.1435642830678" width="395.52"><g><svg viewBox="0 0 395.52 51.1435642830678" height="51.1435642830678" width="395.52"><g><svg viewBox="0 0 395.52 51.1435642830678" height="51.1435642830678" width="395.52"><g transform="matrix(1,0,0,1,0,0)"><svg width="395.52" viewBox="1.25 -34.900001525878906 269.8800048828125 34.900001525878906" height="51.1435642830678" data-palette-color="#48c78e"><path d="M25.1-28.65L16.75-28.65 16.75 0 9.6 0 9.6-28.65 1.25-28.65 1.25-34.9 25.1-34.9 25.1-28.65ZM36.9-13.2L36.9 0 29.75 0 29.75-34.9 44.85-34.9Q49.55-34.9 52-31.95 54.45-29 54.45-24.05L54.45-24.05Q54.45-20.2 53-17.55 51.55-14.9 48.7-13.85L48.7-13.85 54.8 0 47.05 0 41.65-13.2 36.9-13.2ZM36.9-19.15L43.95-19.15Q45.4-19.15 46.22-19.88 47.05-20.6 47.05-22.4L47.05-22.4 47.05-25.4Q47.05-27.2 46.22-27.93 45.4-28.65 43.95-28.65L43.95-28.65 36.9-28.65 36.9-19.15ZM74.44 0L59.09 0 59.09-5.65 63.2-5.65 63.2-29.25 59.09-29.25 59.09-34.9 74.44-34.9 74.44-29.25 70.34-29.25 70.34-5.65 74.44-5.65 74.44 0ZM87.24 0L80.09 0 80.09-34.9 95.19-34.9Q99.89-34.9 102.34-31.9 104.79-28.9 104.79-23.9L104.79-23.9Q104.79-18.9 102.34-15.9 99.89-12.9 95.19-12.9L95.19-12.9 87.24-12.9 87.24 0ZM87.24-28.65L87.24-19.15 94.29-19.15Q95.74-19.15 96.57-19.9 97.39-20.65 97.39-22.4L97.39-22.4 97.39-25.4Q97.39-27.15 96.57-27.9 95.74-28.65 94.29-28.65L94.29-28.65 87.24-28.65ZM131.54-28.65L123.19-28.65 123.19 0 116.04 0 116.04-28.65 107.69-28.65 107.69-34.9 131.54-34.9 131.54-28.65ZM143.34-13.2L143.34 0 136.19 0 136.19-34.9 151.29-34.9Q155.99-34.9 158.44-31.95 160.89-29 160.89-24.05L160.89-24.05Q160.89-20.2 159.44-17.55 157.99-14.9 155.14-13.85L155.14-13.85 161.24 0 153.49 0 148.09-13.2 143.34-13.2ZM143.34-19.15L150.39-19.15Q151.84-19.15 152.66-19.88 153.49-20.6 153.49-22.4L153.49-22.4 153.49-25.4Q153.49-27.2 152.66-27.93 151.84-28.65 150.39-28.65L150.39-28.65 143.34-28.65 143.34-19.15ZM193.19 0L186.13 0 183.99-8.55 173.28-8.55 171.13 0 164.28 0 174.19-34.9 183.28-34.9 193.19 0ZM182.23-14.3L180.09-22.35 178.98-28.4 178.19-28.4 177.09-22.35 175.03-14.3 182.23-14.3ZM210.63 0L202.23 0 191.98-34.9 199.38-34.9 204.98-13.7 206.08-6.5 206.88-6.5 207.98-13.7 213.48-34.9 220.68-34.9 210.63 0ZM246.28 0L224.68 0 224.68-34.9 246.28-34.9 246.28-28.65 231.83-28.65 231.83-20.75 244.08-20.75 244.08-14.55 231.83-14.55 231.83-6.25 246.28-6.25 246.28 0ZM271.13 0L252.13 0 252.13-34.9 259.28-34.9 259.28-6.25 271.13-6.25 271.13 0Z" opacity="1" transform="matrix(1,0,0,1,0,0)" fill="#48c78e" class="undefined-text-0" data-fill-palette-color="primary" id="text-0"></path></svg></g></svg></g></svg></g></svg></g><g><svg viewBox="0 0 120.32035794305673 133.8938512930715" height="133.8938512930715" width="120.32035794305673"><g><svg xmlns="http://www.w3.org/2000/svg" xmlns:xlink="http://www.w3.org/1999/xlink" version="1.1" x="0" y="0" viewBox="16.979248046875 14 66.04163360595703 73.49187469482422" enable-background="new 0 0 100 100" xml:space="preserve" height="133.8938512930715" width="120.32035794305673" class="icon-icon-0" data-fill-palette-color="accent" id="icon-0"><path d="M59.917 32.509l17.726 11.002C81.447 45.872 81 49.504 81 52.448c0 0.152-0.124 0.276-0.276 0.276H59.277C59.85 46.267 60.165 38.738 59.917 32.509M40.084 32.509c-0.248 6.234 0.068 13.765 0.64 20.215H19.276C19.124 52.724 19 52.6 19 52.448c0-2.94-0.449-6.574 3.357-8.937L40.084 32.509M42.998 69.356c0.64 3.278 1.327 6.007 2.004 7.947L45 80H31.499c-0.152 0-0.276-0.124-0.276-0.276 0-1.591-0.216-2.926 1.206-3.808L42.998 69.356M57.003 69.356l10.569 6.56c1.424 0.884 1.206 2.224 1.206 3.808 0 0.152-0.124 0.276-0.276 0.276H55l-0.001-2.698C55.676 75.362 56.363 72.634 57.003 69.356M50 14c-5.993 0-8.983 4.771-9.774 16.066L21.303 41.812C16.427 44.839 17 49.748 17 52.448c0 1.257 1.019 2.276 2.276 2.276h21.643c0.405 4.182 0.94 8.433 1.657 12.539l-11.202 6.953c-2.436 1.512-2.151 3.918-2.151 5.508 0 1.257 1.019 2.276 2.276 2.276H47l0.004-5.038C44.071 68.956 42 50.643 42 37c0-17.949 3.582-21 8-21s8 3.051 8 21c0 13.643-2.07 31.956-5.003 39.962L53 82h15.502c1.257 0 2.276-1.019 2.276-2.276 0-1.602 0.281-3.998-2.151-5.508l-11.202-6.953c0.717-4.105 1.251-8.356 1.657-12.539h21.643c1.257 0 2.276-1.019 2.276-2.276 0-2.734 0.563-7.616-4.303-10.636L59.774 30.066C58.983 18.771 55.993 14 50 14L50 14z" fill="#48c78e" data-fill-palette-color="accent"></path><path d="M53.401 24.3L50 21.75l-3.4 2.55c-1.054 0.794-2.259-0.806-1.199-1.6l4-3c0.355-0.267 0.844-0.267 1.199 0l4 3C55.653 23.488 54.459 25.096 53.401 24.3z" fill="#48c78e" data-fill-palette-color="accent"></path><path d="M49 86.5v-18c0-1.322 2-1.323 2 0v18C51 87.822 49 87.823 49 86.5z" fill="#48c78e" data-fill-palette-color="accent"></path></svg></g></svg></g></svg></g><defs></defs></svg><rect width="395.52" height="100.3149820259843" fill="none" stroke="none" visibility="hidden"></rect></g></svg></g></svg>